{"title":"Justice League: War (2014) BRRIP 720P","uid":9508034,"size":1701660808,"categoryP":"video","categoryS":"hd___movies","magnet":"?xt=urn:btih:3f30ce6a61a9c03c40ddc17f127e8833b5bd6b6f&amp;dn=Justice+League%3A+War+%282014%29+BRRIP+720P&amp;tr=udp%3A%2F%2Ftracker.openbittorrent.com%3A80&amp;tr=udp%3A%2F%2Fopen.demonii.com%3A1337&amp;tr=udp%3A%2F%2Ftracker.coppersurfer.tk%3A6969&amp;tr=udp%3A%2F%2Fexodus.desync.com%3A6969","seeders":1,"leechers":0,"uploader":"sonicx33","files":-1,"time":1390350813,"description":"Plot Summary\n\nIn Gotham City's shadows lurks a mysterious figure, a silent guardian known only as the Batman. While battling crime and an ever-growing public distrust, he faces the injustices of the night alone. During a criminal pursuit, the Batman crosses paths with the arrogant intergalactic cop, Green Lantern and the unlikely duo uncover an impending threat bigger and more deadly then anything the Earth has faced before. To have a chance to survive, it will be a race to forge an uneasy alliance of the Earth's greatest super powers including the Kryptonian alien, Superman, the Amazonian envoy, Wonder Woman and the scarlet Speedster, The Flash. Along with newcomers, Cyborg and teen super hero Shazam, this awesome assembly of the world's finest are prepared to meet evil head on and offer mankind its only hope, if they don't self-destruct first!\n\n\n &lt;a href=&quot;\nhttp://www.imdb.com/title/tt3060952/&quot; rel=&quot;nofollow&quot; target=&quot;_NEW&quot;&gt;\nhttp://www.imdb.com/title/tt3060952/&lt;/a&gt;\n\n\n &lt;a href=&quot;\nhttp://postimg.org/image/hmgp6cq75/&quot; rel=&quot;nofollow&quot; target=&quot;_NEW&quot;&gt;\nhttp://postimg.org/image/hmgp6cq75/&lt;/a&gt;\n\n\n &lt;a href=&quot;\nhttp://postimg.org/image/lwvd1xva9/&quot; rel=&quot;nofollow&quot; target=&quot;_NEW&quot;&gt;\nhttp://postimg.org/image/lwvd1xva9/&lt;/a&gt;\n\n\n &lt;a href=&quot;\nhttp://postimg.org/image/g9z04gsrl/&quot; rel=&quot;nofollow&quot; target=&quot;_NEW&quot;&gt;\nhttp://postimg.org/image/g9z04gsrl/&lt;/a&gt;\n\n\nFormat                                   : MPEG-4\nFormat profile                           : Base Media\nCodec ID                                 : isom\nFile size                                : 1.57 GiB\nDuration                                 : 1h 19mn\nOverall bit rate mode                    : Variable\nOverall bit rate                         : 2 837 Kbps\nMovie name                               : Justice League: War\nAlbum                                    : DCU Justice League Double Feature\nPart/Position                            : 1\nPart/Total                               : 1\nTrack name/Position                      : 1\nTrack name/Total                         : 2\nPerformer                                : Jay Oliva\nGenre                                    : Action &amp; Adventure\nDescription                              : In Gotham City's shadows lurks a \nRecorded date                            : UTC 2014-02-04 08:00:00\nTagged date                              : UTC 2014-01-21 23:26:10\nCover                                    : Yes\n\n\nVideo\nID                                       : 1\nFormat                                   : AVC\nFormat/Info                              : Advanced Video Codec\nFormat profile                           : &lt;a class=&quot;__cf_email__&quot; href=&quot;/cdn-cgi/l/email-protection&quot; data-cfemail=&quot;53113220363f3a3d36131f607d63&quot;&gt;[email&amp;#160;protected]&lt;/a&gt;&lt;script cf-hash='f9e31' type=&quot;text/javascript&quot;&gt;\n/* &lt;![CDATA[ */!function(){try{var t=&quot;currentScript&quot;in document?document.currentScript:function(){for(var t=document.getElementsByTagName(&quot;script&quot;),e=t.length;e--;)if(t[e].getAttribute(&quot;cf-hash&quot;))return t[e]}();if(t&amp;&amp;t.previousSibling){var e,r,n,i,c=t.previousSibling,a=c.getAttribute(&quot;data-cfemail&quot;);if(a){for(e=&quot;&quot;,r=parseInt(a.substr(0,2),16),n=2;a.length-n;n+=2)i=parseInt(a.substr(n,2),16)^r,e+=String.fromCharCode(i);e=document.createTextNode(e),c.parentNode.replaceChild(e,c)}}}catch(u){}}();/* ]]&gt; */&lt;/script&gt;\nFormat settings, CABAC                   : No\nFormat settings, ReFrames                : 3 frames\nFormat settings, GOP                     : N=1\nCodec ID                                 : avc1\nCodec ID/Info                            : Advanced Video Coding\nDuration                                 : 1h 19mn\nBit rate                                 : 2 705 Kbps\nWidth                                    : 1 280 pixels\nHeight                                   : 720 pixels\nDisplay aspect ratio                     : 16:9\nFrame rate mode                          : Constant\nFrame rate                               : 23.976 fps\nColor space                              : YUV\nChroma subsampling                       : 4:2:0\nBit depth                                : 8 bits\nScan type                                : Progressive\nBits/(Pixel*Frame)                       : 0.122\nStream size                              : 1.50 GiB (95%)\nWriting library                          : x264 core 102\nEncoding settings                        : cabac=0 / ref=3 / deblock=1:0:0 / \nAudio\nID                                       : 2\nFormat                                   : AAC\nFormat/Info                              : Advanced Audio Codec\nFormat profile                           : LC\nCodec ID                                 : 40\nDuration                                 : 1h 19mn\nBit rate mode                            : Variable\nBit rate                                 : 128 Kbps\nMaximum bit rate                         : 219 Kbps\nChannel(s)                               : 2 channels\nChannel positions                        : Front: L R\nSampling rate                            : 48.0 KHz\nCompression mode                         : Lossy\nStream size                              : 72.7 MiB (5%)\nLanguage                                 : English\n\n\n\n\n\n","torrent":{"xt":"urn:btih:3f30ce6a61a9c03c40ddc17f127e8833b5bd6b6f","amp;dn":"Justice+League%3A+War+%282014%29+BRRIP+720P","amp;tr":["udp%3A%2F%2Ftracker.openbittorrent.com%3A80","udp%3A%2F%2Fopen.demonii.com%3A1337","udp%3A%2F%2Ftracker.coppersurfer.tk%3A6969","udp%3A%2F%2Fexodus.desync.com%3A6969"],"infoHash":"3f30ce6a61a9c03c40ddc17f127e8833b5bd6b6f","infoHashBuffer":{"type":"Buffer","data":[63,48,206,106,97,169,192,60,64,221,193,127,18,126,136,51,181,189,107,111]},"announce":[],"urlList":[]}}